<svg width="872" height="210" viewBox="0 0 872 210" fill="none" xmlns="http://www.w3.org/2000/svg">
<path d="M242.994 66.7288L230.902 63.3403L226.741 54.0607L195.612 51.0238L180.905 61.4422L203.64 88.5217L197.383 98.462L160.715 52.8657C164.047 45.4842 163.147 36.4998 157.734 29.7792C150.001 20.2465 136.012 18.8265 126.479 26.5032C116.96 34.2503 115.526 48.2258 123.203 57.7585C127.843 63.5371 134.817 66.2648 141.72 65.9133L193.742 132.276L224.224 83.6429L240.238 85.4847L249.462 91.7976L250.657 79.2421L242.98 66.7428L242.994 66.7288ZM143.998 48.0993C141.622 50.0115 138.107 49.6459 136.195 47.2698C134.282 44.8936 134.648 41.3787 137.024 39.4665C139.4 37.5544 142.915 37.9199 144.827 40.2961C146.739 42.6722 146.374 46.1872 143.998 48.0993ZM214.354 63.1575L210.726 58.2787L221.089 59.291L224.533 66.1382L214.354 63.1575Z" fill="#F03D52"/>
<path d="M103.407 42.377C106.739 34.9955 105.909 26.0112 100.426 19.2765C92.6931 9.75793 78.7035 8.32383 69.1708 16.0006C59.6522 23.7335 58.2181 37.7232 65.8949 47.2558C70.5909 53.0345 77.5646 55.8324 84.4118 55.4106L163.401 152.734L159.773 158.442H152.448L42.9209 30.2292C45.7188 23.0305 44.6503 14.6367 39.4621 8.21134C31.7292 -1.32131 17.7395 -2.74139 8.20686 4.93535C-1.31173 12.6683 -2.74585 26.658 4.93089 36.1906C9.86593 42.3208 17.4302 45.0625 24.7554 44.2189L78.9847 108.867L120.532 158.386L133.509 173.092H167.914L186.839 142.92L176.181 129.999L103.379 42.377H103.407ZM86.6755 37.5545C84.2993 39.4666 80.7843 39.1011 78.8722 36.7249C76.96 34.3488 77.3256 30.8338 79.7017 28.9217C82.0779 27.0095 85.5928 27.3751 87.505 29.7512C89.4172 32.1273 89.0516 35.6423 86.6755 37.5545ZM25.838 26.5455C23.4619 28.4436 19.9469 28.0921 18.0348 25.716C16.1226 23.3398 16.4882 19.8249 18.8643 17.9127C21.2404 16.0005 24.7554 16.3661 26.6676 18.7422C28.5657 21.1184 28.2142 24.5771 25.838 26.5455Z" fill="#F03D52"/>
<path d="M87.9264 138.688L84.299 163.392L50.78 165.234L60.0034 201.368L100.13 210L105.726 184.102L110.661 157.908L103.884 158.204L87.9264 138.674V138.688ZM78.4078 190.471C74.7101 190.471 71.6872 187.49 71.6872 183.751C71.6872 180.011 74.6679 177.016 78.4078 177.016C82.1478 177.016 85.1285 179.997 85.1285 183.751C85.0723 187.434 82.0915 190.471 78.4078 190.471Z" fill="#F03D52"/>
<path d="M333.825 24.8105H319.94V83.9237H333.825V24.8105Z" fill="black"/>
<path d="M396.395 54.3673C396.395 48.3513 395.231 42.9751 392.946 38.3967C390.628 33.7683 387.279 30.1122 382.975 27.528C378.687 24.952 373.544 23.6475 367.686 23.6475C361.827 23.6475 356.684 24.952 352.396 27.528C348.1 30.1122 344.743 33.7683 342.425 38.3967C340.14 42.9751 338.977 48.343 338.977 54.3673C338.977 60.3917 340.14 65.7595 342.425 70.338C344.743 74.9747 348.092 78.6308 352.396 81.2067C356.684 83.7826 361.827 85.0872 367.686 85.0872C373.544 85.0872 378.588 83.8076 382.842 81.2898L387.362 85.7935L396.145 76.9025L391.741 72.4985C392.165 71.8005 392.572 71.0776 392.938 70.3463C395.223 65.7679 396.386 60.4 396.386 54.3757L396.395 54.3673ZM381.886 54.3673C381.886 57.0679 381.579 59.5358 380.981 61.7212L377.607 58.3475L368.724 67.2303L372.696 71.1773C371.225 71.6343 369.564 71.842 367.719 71.8171C364.528 71.7673 361.861 71.0443 359.8 69.665C357.714 68.269 356.185 66.3495 355.13 63.7985C354.042 61.1811 353.493 58.0069 353.493 54.3757C353.493 50.7444 354.042 47.537 355.13 44.8614C356.185 42.2605 357.714 40.3245 359.792 38.9285C361.778 37.599 364.32 36.9259 367.353 36.9259C367.453 36.9259 367.553 36.9259 367.652 36.9259C370.843 36.9758 373.51 37.6987 375.571 39.078C377.657 40.474 379.186 42.3935 380.241 44.9445C381.33 47.5702 381.878 50.7361 381.878 54.3673H381.886Z" fill="black"/>
<path d="M429.956 48.584H403.366V60.0676H429.956V48.584Z" fill="black"/>
<path d="M428.66 37.9976H446.235V83.9237H460.128V37.9976H477.702V24.8105H428.66V37.9976Z" fill="black"/>
<path d="M516 47.7279H494.429V24.8105H480.536V83.9237H494.429V60.9232H516V83.9237H529.894V24.8105H516V47.7279Z" fill="black"/>
<path d="M552.038 24.8105H538.153V83.9237H552.038V24.8105Z" fill="black"/>
<path d="M595.222 58.0066L573.568 24.8105H560.298V83.9237H574.34V50.7193L595.986 83.9237H609.265V24.8105H595.222V58.0066Z" fill="black"/>
<path d="M669.566 52.4894L669.35 51.0685H646.175V62.5521H654.56C654.044 64.3552 653.338 65.9008 652.449 67.1389C651.269 68.7925 649.881 69.9641 648.195 70.7286C646.483 71.5013 644.555 71.867 642.386 71.8171C639.195 71.7672 636.528 71.0443 634.467 69.6649C632.382 68.269 630.853 66.3495 629.798 63.7985C628.717 61.181 628.161 58.0068 628.161 54.3756C628.161 50.7444 628.709 47.537 629.798 44.8614C630.853 42.2605 632.382 40.3244 634.459 38.9285C636.512 37.5574 639.171 36.8926 642.336 36.9259C645.519 36.9508 648.037 37.7901 650.031 39.4852C652.058 41.2135 653.546 43.5734 654.452 46.5066L654.875 47.8777L668.86 45.8668L668.453 44.0886C666.982 37.6488 664.007 32.5884 659.628 29.0236C655.233 25.4589 649.192 23.6558 641.655 23.6558C636.528 23.6558 631.792 24.8773 627.562 27.2787C623.316 29.6967 619.901 33.2448 617.392 37.8233C614.907 42.3768 613.644 47.9441 613.644 54.3673C613.644 59.2782 614.392 63.6905 615.871 67.4796C617.358 71.2936 619.419 74.5509 622.012 77.1517C624.604 79.7609 627.629 81.7551 631.002 83.0846C634.359 84.4058 637.941 85.0789 641.647 85.0789C647.297 85.0789 652.283 83.8242 656.479 81.3396C660.684 78.8551 663.982 75.3652 666.284 70.9778C668.569 66.6237 669.733 61.5799 669.733 55.9877C669.733 55.8547 669.716 55.3479 669.691 54.4671C669.666 53.5447 669.616 52.8966 669.558 52.4811L669.566 52.4894Z" fill="black"/>
<path d="M714.645 52.8882C712.916 51.6833 711.08 50.736 709.202 50.0547C707.416 49.4148 705.754 48.883 704.275 48.4842L694.578 45.8501C693.464 45.5593 692.359 45.1937 691.304 44.7616C690.381 44.3877 689.617 43.8891 689.035 43.2991C688.595 42.8504 688.395 42.2854 688.395 41.5126C688.395 40.6235 688.686 39.9089 689.301 39.2691C690.024 38.5129 691.005 37.9229 692.201 37.5075C693.464 37.0754 694.844 36.8759 696.264 36.9175C697.727 36.9673 699.148 37.2748 700.486 37.8315C701.798 38.3883 702.904 39.1694 703.851 40.233C704.773 41.2633 705.396 42.518 705.745 44.0553L706.094 45.6008L720.844 43.0914L720.387 41.3215C719.423 37.6072 717.827 34.4081 715.634 31.8155C713.432 29.2064 710.665 27.1955 707.407 25.8327C704.2 24.4949 700.527 23.7803 696.472 23.7305C692.467 23.7305 688.736 24.3454 685.404 25.625C681.972 26.9462 679.189 28.9986 677.12 31.7075C675.017 34.4745 673.954 37.9562 673.954 42.0527C673.954 44.9693 674.469 47.4455 675.474 49.4148C676.471 51.3676 677.751 52.963 679.28 54.1678C680.742 55.3228 682.28 56.2203 683.867 56.8518C685.354 57.4417 686.675 57.8987 687.789 58.2145L702.247 62.4689C703.203 62.7681 703.992 63.0921 704.59 63.4411C705.131 63.7569 705.538 64.0726 705.795 64.3801C706.045 64.6792 706.219 64.9867 706.319 65.3024C706.435 65.668 706.493 66.0586 706.493 66.4491C706.493 67.5626 706.153 68.4351 705.405 69.1829C704.549 70.0471 703.427 70.7118 702.064 71.1689C700.619 71.6508 699.098 71.8918 697.561 71.8918C694.794 71.8918 692.409 71.1439 690.248 69.6067C688.146 68.1027 686.783 66.0087 686.102 63.1835L685.745 61.6962L671.569 63.7901L671.818 65.452C672.425 69.4904 673.904 73.0302 676.197 75.9717C678.491 78.9049 681.457 81.1817 685.013 82.7439C688.528 84.2894 692.517 85.0705 696.854 85.0705C699.829 85.0705 702.754 84.6883 705.563 83.9321C708.404 83.1676 710.997 81.9794 713.257 80.4256C715.575 78.8218 717.445 76.7777 718.824 74.3264C720.212 71.8502 720.918 68.9336 720.918 65.668C720.918 62.5686 720.32 59.9429 719.132 57.8655C717.969 55.8214 716.456 54.1512 714.645 52.8882Z" fill="black"/>
<path d="M756.233 24.8105H742.34V83.9237H780.231V70.7283H756.233V24.8105Z" fill="black"/>
<path d="M771.066 37.9976H788.648V83.9237H802.533V37.9976H820.116V24.8105H771.066V37.9976Z" fill="black"/>
<path d="M869.433 40.682C867.712 36.4691 865.153 32.9377 861.821 30.1872C858.464 27.4119 854.326 25.7084 849.531 25.1268C848.21 24.9689 846.823 24.8692 845.41 24.8443C844.022 24.8193 843.108 24.8027 842.668 24.8027H822.95V83.9159H842.668C843.117 83.9159 844.022 83.8993 845.41 83.8743C846.823 83.8494 848.21 83.7497 849.531 83.5918C854.326 83.0101 858.464 81.3067 861.821 78.5313C865.145 75.7809 867.704 72.2494 869.433 68.0365C871.136 63.8818 872 59.2701 872 54.351C872 49.4318 871.136 44.8284 869.433 40.6654V40.682ZM836.993 38.0812H842.668C843.358 38.0812 844.288 38.0978 845.46 38.1227C846.54 38.1476 847.512 38.2474 848.385 38.4385C850.387 38.8373 851.991 39.7347 853.304 41.2055C854.683 42.7427 855.73 44.6705 856.412 46.9224C857.118 49.2573 857.484 51.7584 857.484 54.3676C857.484 56.9767 857.135 59.3034 856.445 61.6383C855.78 63.8985 854.75 65.8512 853.379 67.4383C852.082 68.9423 850.446 69.8813 848.393 70.2884C847.529 70.4546 846.54 70.5543 845.443 70.5875C844.28 70.6208 843.358 70.6457 842.668 70.6457H836.993V38.0729V38.0812Z" fill="black"/>
<path d="M316.907 171.704V138.799H321.865L333.245 162.107L344.625 138.799H349.583V171.704H344.442V150.613L334.342 171.704H332.148L322.071 150.613V171.704H316.907Z" fill="#F03D52"/>
<path d="M362.904 172.39C361.122 172.39 359.614 172.055 358.38 171.384C357.146 170.699 356.209 169.792 355.569 168.665C354.944 167.538 354.632 166.296 354.632 164.94C354.632 163.752 354.83 162.686 355.226 161.741C355.622 160.782 356.232 159.959 357.054 159.273C357.877 158.573 358.943 158.001 360.253 157.56C361.244 157.24 362.401 156.95 363.727 156.691C365.067 156.432 366.515 156.196 368.068 155.983C369.637 155.754 371.275 155.511 372.981 155.252L371.016 156.371C371.031 154.665 370.651 153.408 369.874 152.601C369.097 151.794 367.787 151.39 365.943 151.39C364.831 151.39 363.757 151.649 362.721 152.167C361.685 152.685 360.962 153.576 360.55 154.84L355.523 153.264C356.133 151.177 357.29 149.501 358.997 148.236C360.718 146.972 363.034 146.34 365.943 146.34C368.137 146.34 370.064 146.698 371.725 147.414C373.4 148.13 374.642 149.303 375.449 150.933C375.891 151.801 376.158 152.692 376.249 153.606C376.34 154.505 376.386 155.488 376.386 156.554V171.704H371.565V166.357L372.364 167.225C371.252 169.008 369.95 170.318 368.457 171.156C366.979 171.978 365.128 172.39 362.904 172.39ZM364.001 168.002C365.25 168.002 366.317 167.782 367.2 167.34C368.084 166.898 368.784 166.357 369.302 165.717C369.836 165.077 370.194 164.476 370.376 163.912C370.666 163.211 370.826 162.412 370.856 161.513C370.902 160.599 370.925 159.86 370.925 159.296L372.616 159.799C370.955 160.058 369.531 160.286 368.343 160.484C367.154 160.683 366.134 160.873 365.281 161.056C364.427 161.223 363.673 161.414 363.018 161.627C362.379 161.856 361.838 162.122 361.396 162.427C360.954 162.731 360.611 163.082 360.368 163.478C360.139 163.874 360.025 164.339 360.025 164.872C360.025 165.481 360.177 166.022 360.482 166.494C360.787 166.951 361.228 167.317 361.807 167.591C362.401 167.865 363.133 168.002 364.001 168.002Z" fill="#F03D52"/>
<path d="M382.289 171.704L382.335 138.799H387.911V158.908L396.937 147.025H403.815L394.24 159.365L404.638 171.704H397.348L387.911 159.822V171.704H382.289Z" fill="#F03D52"/>
<path d="M407.384 143.278V138.228H412.891V143.278H407.384ZM407.384 171.704V147.025H412.891V171.704H407.384Z" fill="#F03D52"/>
<path d="M436.805 171.704V159.822C436.805 159.045 436.752 158.184 436.645 157.24C436.539 156.295 436.287 155.389 435.891 154.52C435.51 153.637 434.931 152.913 434.155 152.35C433.393 151.786 432.357 151.504 431.047 151.504C430.346 151.504 429.653 151.618 428.967 151.847C428.282 152.075 427.657 152.471 427.094 153.035C426.545 153.584 426.103 154.345 425.768 155.32C425.433 156.28 425.266 157.514 425.266 159.022L421.998 157.628C421.998 155.526 422.402 153.622 423.209 151.915C424.032 150.209 425.235 148.853 426.819 147.848C428.404 146.827 430.354 146.317 432.669 146.317C434.497 146.317 436.005 146.622 437.194 147.231C438.382 147.84 439.326 148.617 440.027 149.562C440.728 150.506 441.246 151.512 441.581 152.578C441.916 153.644 442.129 154.657 442.221 155.617C442.328 156.562 442.381 157.331 442.381 157.925V171.704H436.805ZM419.69 171.704V147.025H424.603V154.68H425.266V171.704H419.69Z" fill="#F03D52"/>
<path d="M458.718 183.358C457.347 183.358 456.029 183.145 454.765 182.718C453.516 182.292 452.388 181.675 451.383 180.867C450.378 180.075 449.555 179.116 448.915 177.988L453.988 175.475C454.46 176.373 455.123 177.036 455.976 177.463C456.844 177.904 457.766 178.125 458.741 178.125C459.884 178.125 460.904 177.92 461.803 177.508C462.702 177.112 463.395 176.518 463.882 175.726C464.385 174.949 464.621 173.974 464.591 172.801V165.786H465.276V147.025H470.098V172.892C470.098 173.517 470.067 174.111 470.006 174.675C469.961 175.254 469.877 175.817 469.755 176.366C469.39 177.965 468.689 179.275 467.653 180.296C466.617 181.332 465.33 182.101 463.791 182.604C462.268 183.107 460.577 183.358 458.718 183.358ZM458.238 172.39C455.968 172.39 453.988 171.818 452.297 170.676C450.606 169.533 449.296 167.98 448.367 166.014C447.437 164.049 446.973 161.833 446.973 159.365C446.973 156.866 447.437 154.642 448.367 152.692C449.311 150.727 450.644 149.181 452.366 148.054C454.087 146.911 456.113 146.34 458.444 146.34C460.79 146.34 462.755 146.911 464.339 148.054C465.939 149.181 467.15 150.727 467.973 152.692C468.795 154.657 469.207 156.882 469.207 159.365C469.207 161.817 468.795 164.034 467.973 166.014C467.15 167.98 465.924 169.533 464.294 170.676C462.664 171.818 460.645 172.39 458.238 172.39ZM459.084 167.454C460.561 167.454 461.75 167.119 462.648 166.449C463.563 165.763 464.225 164.811 464.637 163.592C465.063 162.373 465.276 160.964 465.276 159.365C465.276 157.75 465.063 156.341 464.637 155.137C464.225 153.919 463.578 152.974 462.694 152.304C461.811 151.618 460.668 151.276 459.267 151.276C457.789 151.276 456.57 151.641 455.61 152.372C454.651 153.088 453.942 154.063 453.485 155.297C453.028 156.516 452.8 157.872 452.8 159.365C452.8 160.873 453.021 162.244 453.462 163.478C453.919 164.697 454.613 165.664 455.542 166.38C456.471 167.096 457.652 167.454 459.084 167.454Z" fill="#F03D52"/>
<path d="M485.655 171.704V138.799H506.906V143.963H491.162V152.075H504.164V157.24H491.162V166.54H506.906V171.704H485.655Z" fill="#F03D52"/>
<path d="M519.061 171.704L510.104 147.025H515.611L521.826 164.918L528.019 147.025H533.549L524.591 171.704H519.061Z" fill="#F03D52"/>
<path d="M547.977 172.39C545.478 172.39 543.285 171.849 541.396 170.767C539.507 169.686 538.029 168.185 536.963 166.266C535.912 164.346 535.386 162.137 535.386 159.639C535.386 156.943 535.904 154.604 536.94 152.624C537.976 150.628 539.415 149.082 541.259 147.985C543.102 146.888 545.235 146.34 547.657 146.34C550.216 146.34 552.387 146.942 554.169 148.145C555.967 149.333 557.3 151.017 558.168 153.195C559.037 155.373 559.364 157.94 559.151 160.896H553.69V158.885C553.674 156.204 553.202 154.246 552.273 153.012C551.344 151.778 549.881 151.161 547.885 151.161C545.631 151.161 543.955 151.862 542.858 153.264C541.761 154.65 541.213 156.684 541.213 159.365C541.213 161.863 541.761 163.798 542.858 165.169C543.955 166.54 545.555 167.225 547.657 167.225C549.013 167.225 550.178 166.928 551.153 166.334C552.143 165.725 552.905 164.849 553.438 163.706L558.877 165.352C557.932 167.576 556.47 169.305 554.489 170.539C552.524 171.773 550.353 172.39 547.977 172.39ZM539.476 160.896V156.737H556.455V160.896H539.476Z" fill="#F03D52"/>
<path d="M564.25 171.704V147.025H569.117V153.035L568.523 152.258C568.827 151.436 569.231 150.689 569.734 150.019C570.252 149.333 570.869 148.77 571.585 148.328C572.194 147.916 572.864 147.597 573.596 147.368C574.342 147.124 575.104 146.98 575.881 146.934C576.658 146.873 577.412 146.903 578.143 147.025V152.167C577.412 151.953 576.566 151.885 575.606 151.961C574.662 152.037 573.809 152.304 573.047 152.761C572.285 153.172 571.661 153.698 571.173 154.338C570.701 154.977 570.351 155.709 570.122 156.531C569.894 157.339 569.779 158.215 569.779 159.159V171.704H564.25Z" fill="#F03D52"/>
<path d="M584.99 182.673L589.743 169.625L589.834 173.464L579.071 147.025H584.807L592.439 166.586H590.976L598.403 147.025H603.91L590.154 182.673H584.99Z" fill="#F03D52"/>
<path d="M623.612 171.704C621.982 172.009 620.383 172.138 618.814 172.093C617.26 172.062 615.866 171.78 614.632 171.247C613.398 170.699 612.461 169.838 611.821 168.665C611.258 167.599 610.961 166.509 610.93 165.397C610.9 164.285 610.885 163.029 610.885 161.627V140.17H616.369V161.307C616.369 162.297 616.376 163.166 616.392 163.912C616.422 164.659 616.582 165.268 616.872 165.74C617.42 166.654 618.296 167.165 619.499 167.271C620.703 167.378 622.074 167.317 623.612 167.088V171.704ZM606.406 151.344V147.025H623.612V151.344H606.406Z" fill="#F03D52"/>
<path d="M645.989 171.704V159.822C645.989 159.045 645.936 158.184 645.829 157.24C645.722 156.295 645.471 155.389 645.075 154.52C644.694 153.637 644.115 152.913 643.338 152.35C642.576 151.786 641.541 151.504 640.23 151.504C639.53 151.504 638.837 151.618 638.151 151.847C637.465 152.075 636.841 152.471 636.277 153.035C635.729 153.584 635.287 154.345 634.952 155.32C634.617 156.28 634.449 157.514 634.449 159.022L631.181 157.628C631.181 155.526 631.585 153.622 632.393 151.915C633.215 150.209 634.419 148.853 636.003 147.848C637.587 146.827 639.537 146.317 641.853 146.317C643.681 146.317 645.189 146.622 646.377 147.231C647.566 147.84 648.51 148.617 649.211 149.562C649.912 150.506 650.43 151.512 650.765 152.578C651.1 153.644 651.313 154.657 651.405 155.617C651.511 156.562 651.564 157.331 651.564 157.925V171.704H645.989ZM628.874 171.704V138.799H633.787V156.12H634.449V171.704H628.874Z" fill="#F03D52"/>
<path d="M657.984 143.278V138.228H663.492V143.278H657.984ZM657.984 171.704V147.025H663.492V171.704H657.984Z" fill="#F03D52"/>
<path d="M687.406 171.704V159.822C687.406 159.045 687.353 158.184 687.246 157.24C687.139 156.295 686.888 155.389 686.492 154.52C686.111 153.637 685.532 152.913 684.755 152.35C683.994 151.786 682.958 151.504 681.648 151.504C680.947 151.504 680.254 151.618 679.568 151.847C678.883 152.075 678.258 152.471 677.694 153.035C677.146 153.584 676.704 154.345 676.369 155.32C676.034 156.28 675.866 157.514 675.866 159.022L672.599 157.628C672.599 155.526 673.002 153.622 673.81 151.915C674.632 150.209 675.836 148.853 677.42 147.848C679.005 146.827 680.954 146.317 683.27 146.317C685.098 146.317 686.606 146.622 687.795 147.231C688.983 147.84 689.927 148.617 690.628 149.562C691.329 150.506 691.847 151.512 692.182 152.578C692.517 153.644 692.73 154.657 692.822 155.617C692.928 156.562 692.982 157.331 692.982 157.925V171.704H687.406ZM670.291 171.704V147.025H675.204V154.68H675.866V171.704H670.291Z" fill="#F03D52"/>
<path d="M709.319 183.358C707.948 183.358 706.63 183.145 705.366 182.718C704.117 182.292 702.989 181.675 701.984 180.867C700.978 180.075 700.156 179.116 699.516 177.988L704.589 175.475C705.061 176.373 705.724 177.036 706.577 177.463C707.445 177.904 708.367 178.125 709.342 178.125C710.484 178.125 711.505 177.92 712.404 177.508C713.303 177.112 713.996 176.518 714.483 175.726C714.986 174.949 715.222 173.974 715.192 172.801V165.786H715.877V147.025H720.699V172.892C720.699 173.517 720.668 174.111 720.607 174.675C720.562 175.254 720.478 175.817 720.356 176.366C719.99 177.965 719.29 179.275 718.254 180.296C717.218 181.332 715.93 182.101 714.392 182.604C712.868 183.107 711.178 183.358 709.319 183.358ZM708.839 172.39C706.569 172.39 704.589 171.818 702.898 170.676C701.207 169.533 699.897 167.98 698.968 166.014C698.038 164.049 697.574 161.833 697.574 159.365C697.574 156.866 698.038 154.642 698.968 152.692C699.912 150.727 701.245 149.181 702.966 148.054C704.688 146.911 706.714 146.34 709.045 146.34C711.391 146.34 713.356 146.911 714.94 148.054C716.54 149.181 717.751 150.727 718.574 152.692C719.396 154.657 719.808 156.882 719.808 159.365C719.808 161.817 719.396 164.034 718.574 166.014C717.751 167.98 716.525 169.533 714.895 170.676C713.265 171.818 711.246 172.39 708.839 172.39ZM709.685 167.454C711.162 167.454 712.351 167.119 713.249 166.449C714.163 165.763 714.826 164.811 715.237 163.592C715.664 162.373 715.877 160.964 715.877 159.365C715.877 157.75 715.664 156.341 715.237 155.137C714.826 153.919 714.179 152.974 713.295 152.304C712.411 151.618 711.269 151.276 709.867 151.276C708.39 151.276 707.171 151.641 706.211 152.372C705.251 153.088 704.543 154.063 704.086 155.297C703.629 156.516 703.401 157.872 703.401 159.365C703.401 160.873 703.621 162.244 704.063 163.478C704.52 164.697 705.213 165.664 706.143 166.38C707.072 167.096 708.253 167.454 709.685 167.454Z" fill="#F03D52"/>
<path d="M748.435 172.39C746.028 172.39 743.858 171.971 741.923 171.133C740.003 170.295 738.419 169.099 737.17 167.545C735.936 165.976 735.151 164.118 734.816 161.97L740.529 161.101C741.016 163.051 742.014 164.56 743.522 165.626C745.046 166.692 746.798 167.225 748.778 167.225C749.951 167.225 751.056 167.043 752.091 166.677C753.127 166.311 753.965 165.778 754.605 165.077C755.26 164.377 755.588 163.516 755.588 162.495C755.588 162.038 755.512 161.619 755.359 161.239C755.207 160.842 754.978 160.492 754.674 160.187C754.384 159.883 754.003 159.609 753.531 159.365C753.074 159.106 752.541 158.885 751.932 158.702L743.431 156.189C742.7 155.975 741.908 155.693 741.055 155.343C740.217 154.977 739.417 154.482 738.655 153.858C737.909 153.218 737.292 152.41 736.804 151.436C736.332 150.445 736.096 149.227 736.096 147.779C736.096 145.662 736.629 143.887 737.695 142.455C738.777 141.008 740.224 139.926 742.037 139.21C743.865 138.494 745.891 138.144 748.115 138.159C750.37 138.174 752.381 138.563 754.148 139.325C755.915 140.071 757.393 141.16 758.581 142.592C759.769 144.024 760.607 145.753 761.095 147.779L755.176 148.808C754.933 147.65 754.46 146.667 753.76 145.86C753.074 145.037 752.229 144.413 751.223 143.986C750.233 143.56 749.174 143.331 748.047 143.301C746.95 143.285 745.929 143.453 744.985 143.803C744.056 144.138 743.302 144.626 742.723 145.266C742.159 145.906 741.877 146.652 741.877 147.505C741.877 148.313 742.121 148.975 742.608 149.493C743.096 149.996 743.698 150.4 744.414 150.704C745.145 150.994 745.884 151.237 746.63 151.436L752.526 153.081C753.333 153.294 754.239 153.584 755.245 153.949C756.25 154.315 757.218 154.825 758.147 155.48C759.076 156.135 759.838 156.996 760.432 158.062C761.041 159.129 761.346 160.484 761.346 162.13C761.346 163.836 760.988 165.336 760.272 166.631C759.571 167.911 758.619 168.977 757.416 169.83C756.212 170.684 754.834 171.323 753.28 171.75C751.741 172.176 750.126 172.39 748.435 172.39Z" fill="#F03D52"/>
<path d="M795.93 171.704V156.714C795.93 155.023 795.511 153.705 794.673 152.761C793.835 151.801 792.7 151.321 791.268 151.321C790.385 151.321 789.593 151.527 788.892 151.938C788.191 152.334 787.635 152.928 787.224 153.721C786.812 154.498 786.607 155.427 786.607 156.508L784.162 155.069C784.146 153.363 784.527 151.862 785.304 150.567C786.096 149.257 787.163 148.236 788.503 147.505C789.844 146.774 791.337 146.408 792.982 146.408C795.709 146.408 797.796 147.231 799.243 148.876C800.706 150.506 801.437 152.654 801.437 155.32V171.704H795.93ZM766.247 171.704V147.025H771.114V154.68H771.799V171.704H766.247ZM781.122 171.704V156.783C781.122 155.061 780.704 153.721 779.866 152.761C779.028 151.801 777.885 151.321 776.438 151.321C775.037 151.321 773.909 151.801 773.056 152.761C772.218 153.721 771.799 154.97 771.799 156.508L769.331 154.863C769.331 153.264 769.728 151.824 770.52 150.544C771.312 149.265 772.378 148.259 773.719 147.528C775.075 146.782 776.59 146.408 778.266 146.408C780.109 146.408 781.648 146.804 782.882 147.597C784.131 148.374 785.06 149.44 785.67 150.796C786.294 152.136 786.607 153.652 786.607 155.343V171.704H781.122Z" fill="#F03D52"/>
<path d="M814.298 172.39C812.516 172.39 811.007 172.055 809.773 171.384C808.54 170.699 807.603 169.792 806.963 168.665C806.338 167.538 806.026 166.296 806.026 164.94C806.026 163.752 806.224 162.686 806.62 161.741C807.016 160.782 807.626 159.959 808.448 159.273C809.271 158.573 810.337 158.001 811.647 157.56C812.637 157.24 813.795 156.95 815.121 156.691C816.461 156.432 817.908 156.196 819.462 155.983C821.031 155.754 822.669 155.511 824.375 155.252L822.41 156.371C822.425 154.665 822.044 153.408 821.267 152.601C820.491 151.794 819.18 151.39 817.337 151.39C816.225 151.39 815.151 151.649 814.115 152.167C813.079 152.685 812.356 153.576 811.944 154.84L806.917 153.264C807.526 151.177 808.684 149.501 810.39 148.236C812.112 146.972 814.427 146.34 817.337 146.34C819.531 146.34 821.458 146.698 823.118 147.414C824.794 148.13 826.036 149.303 826.843 150.933C827.285 151.801 827.551 152.692 827.643 153.606C827.734 154.505 827.78 155.488 827.78 156.554V171.704H822.958V166.357L823.758 167.225C822.646 169.008 821.344 170.318 819.851 171.156C818.373 171.978 816.522 172.39 814.298 172.39ZM815.395 168.002C816.644 168.002 817.71 167.782 818.594 167.34C819.477 166.898 820.178 166.357 820.696 165.717C821.229 165.077 821.587 164.476 821.77 163.912C822.06 163.211 822.22 162.412 822.25 161.513C822.296 160.599 822.319 159.86 822.319 159.296L824.01 159.799C822.349 160.058 820.925 160.286 819.736 160.484C818.548 160.683 817.528 160.873 816.674 161.056C815.821 161.223 815.067 161.414 814.412 161.627C813.772 161.856 813.232 162.122 812.79 162.427C812.348 162.731 812.005 163.082 811.762 163.478C811.533 163.874 811.419 164.339 811.419 164.872C811.419 165.481 811.571 166.022 811.876 166.494C812.18 166.951 812.622 167.317 813.201 167.591C813.795 167.865 814.526 168.002 815.395 168.002Z" fill="#F03D52"/>
<path d="M833.729 171.704V147.025H838.596V153.035L838.002 152.258C838.307 151.436 838.711 150.689 839.213 150.019C839.731 149.333 840.348 148.77 841.064 148.328C841.674 147.916 842.344 147.597 843.075 147.368C843.822 147.124 844.583 146.98 845.36 146.934C846.137 146.873 846.891 146.903 847.622 147.025V152.167C846.891 151.953 846.046 151.885 845.086 151.961C844.141 152.037 843.288 152.304 842.527 152.761C841.765 153.172 841.14 153.698 840.653 154.338C840.181 154.977 839.83 155.709 839.602 156.531C839.373 157.339 839.259 158.215 839.259 159.159V171.704H833.729Z" fill="#F03D52"/>
<path d="M866.448 171.704C864.818 172.009 863.218 172.138 861.649 172.093C860.095 172.062 858.701 171.78 857.467 171.247C856.233 170.699 855.296 169.838 854.657 168.665C854.093 167.599 853.796 166.509 853.765 165.397C853.735 164.285 853.72 163.029 853.72 161.627V140.17H859.204V161.307C859.204 162.297 859.212 163.166 859.227 163.912C859.257 164.659 859.417 165.268 859.707 165.74C860.255 166.654 861.131 167.165 862.334 167.271C863.538 167.378 864.909 167.317 866.448 167.088V171.704ZM849.241 151.344V147.025H866.448V151.344H849.241Z" fill="#F03D52"/>
</svg>
