<?xml version="1.0" encoding="utf-8"?>
<!-- Generator: Adobe Illustrator 24.3.0, SVG Export Plug-In . SVG Version: 6.00 Build 0)  -->
<svg version="1.1" id="Layer_1" xmlns="http://www.w3.org/2000/svg" xmlns:xlink="http://www.w3.org/1999/xlink" x="0px" y="0px"
	 viewBox="0 0 141 36" style="enable-background:new 0 0 141 36;" xml:space="preserve">
<style type="text/css">
	.st0{fill-opacity:0.8;}
	.st1{fill:none;stroke:#000000;stroke-width:2;stroke-opacity:0.8;}
	.st2{fill:#FFFFFF;}
</style>
<rect x="39" y="0" class="st0" width="102" height="36"/>
<rect x="1" y="1" class="st1" width="37" height="34"/>

<g>
	<path class="st2" d="M45.8,25.7l0.1-0.6L48,13.2c0-0.4,0.1-0.8,0.2-1.1c0.1-0.3,0.2-0.7,0.4-1c0.8-1.8,1.9-3.2,3.5-4.1
		c1.4-0.9,2.9-1.3,4.6-1.3h16.6l-1.2,7H56.2l-2.3,13h15.8l-1.2,7H50.4c-0.7,0-1.4-0.1-2-0.4c-1.8-0.8-2.7-2.5-2.7-5L45.8,25.7z"/>
	<path class="st2" d="M83.1,32.7H75l3.6-20.3l0.2-0.9c0.5-1.6,1.2-2.9,2-3.7s1.9-1.4,3.3-1.9c0.3-0.1,0.7-0.2,1.1-0.2
		c0.5,0,1.1-0.1,1.9-0.1h11.8c1.8,0,3.2,0.7,4.2,2.1c0.7,0.9,1,1.9,1,2.9c0,0.3,0,0.5,0,0.7c-0.1,0.4-0.1,0.7-0.2,0.9l-3.6,20.4
		h-8.1L94,22.2h-9.1L83.1,32.7z M85.9,16.5H95l0.7-3.8h-9.1L85.9,16.5z"/>
	<path class="st2" d="M126.8,32.7h-20l1.2-7h18.5l0.6-3.2h-12.8c-1.2,0-2.2-0.4-3-1.1c-1.2-1-1.8-2.1-1.8-3.5l0.1-1l1.2-6.7
		c0.1-0.6,0.4-1.2,0.8-1.8l0.8-0.9c0.7-0.7,1.5-1.1,2.3-1.4c0.8-0.3,1.9-0.4,3.3-0.4h18.9l-1.2,7h-17.1l-0.7,3.8h12.6l0.7,0
		c2.3,0,3.7,0.9,4.3,2.6c0.1,0.3,0.2,0.7,0.2,1.2c0,0.2,0,0.3,0,0.5c-0.1,0.2-0.1,0.4-0.1,0.5l-1.1,6.3c-0.4,2.2-1.4,3.7-3.2,4.6
		c-0.3,0.2-0.6,0.3-1.1,0.4c-0.5,0.1-0.9,0.2-1.4,0.2L126.8,32.7z"/>
</g>
</svg>
